<?xml version="1.0" encoding="UTF-8"?>
<svg width="76px" height="76px" viewBox="0 0 76 76" version="1.1" xmlns="http://www.w3.org/2000/svg" xmlns:xlink="http://www.w3.org/1999/xlink">
    <!-- Generator: Sketch 52.6 (67491) - http://www.bohemiancoding.com/sketch -->
    <title>Group</title>
    <desc>Created with Sketch.</desc>
    <g id="Page-1" stroke="none" stroke-width="1" fill="none" fill-rule="evenodd">
        <g id="Group">
            <rect id="Rectangle-Copy-4" fill="#BDBDBD" x="0" y="0" width="76" height="76"></rect>
            <g id="Link" transform="translate(13.000000, 13.000000)">
                <g id="baseline-link-24px">
                    <polygon id="Path" points="0 0 50 0 50 50 0 50"></polygon>
                    <path d="M8.125,25 C8.125,21.4375 11.0208333,18.5416667 14.5833333,18.5416667 L22.9166667,18.5416667 L22.9166667,14.5833333 L14.5833333,14.5833333 C8.83333333,14.5833333 4.16666667,19.25 4.16666667,25 C4.16666667,30.75 8.83333333,35.4166667 14.5833333,35.4166667 L22.9166667,35.4166667 L22.9166667,31.4583333 L14.5833333,31.4583333 C11.0208333,31.4583333 8.125,28.5625 8.125,25 Z M16.6666667,27.0833333 L33.3333333,27.0833333 L33.3333333,22.9166667 L16.6666667,22.9166667 L16.6666667,27.0833333 Z M35.4166667,14.5833333 L27.0833333,14.5833333 L27.0833333,18.5416667 L35.4166667,18.5416667 C38.9791667,18.5416667 41.875,21.4375 41.875,25 C41.875,28.5625 38.9791667,31.4583333 35.4166667,31.4583333 L27.0833333,31.4583333 L27.0833333,35.4166667 L35.4166667,35.4166667 C41.1666667,35.4166667 45.8333333,30.75 45.8333333,25 C45.8333333,19.25 41.1666667,14.5833333 35.4166667,14.5833333 Z" id="Shape" fill="#FFFFFF" fill-rule="nonzero"></path>
                </g>
            </g>
        </g>
    </g>
</svg>